<?xml version="1.0" encoding="utf-8"?>
<!-- Generator: Adobe Illustrator 24.0.1, SVG Export Plug-In . SVG Version: 6.00 Build 0)  -->
<svg version="1.1" id="Layer_1" xmlns="http://www.w3.org/2000/svg" xmlns:xlink="http://www.w3.org/1999/xlink" x="0px" y="0px"
	 viewBox="0 0 351 324" style="enable-background:new 0 0 351 324;" xml:space="preserve">
<style type="text/css">
	.st0{fill:#3FA9F5;}
	.st1{fill:none;}
	.st2{font-family:'BaskOldFace';}
	.st3{font-size:18px;}
</style>
<path class="st0" d="M345.69,318.61l-32.04-56.69l-9.05-16.03l-18.41-0.04l-31.8-0.08l-17.54-31.04l31.8,0.08l18.41,0.04
	l-9.05-16.02L177.73,21.39L73.37,198.35l-9.42,15.98l18.55,0.05l32.06,0.07L96.3,245.41l-32.05-0.08l-18.55-0.04l-9.43,15.97
	l-31.96,54.2l50.4,0.47l-0.27,0.46l19.43,0.18l0,0l0,0l0,0l0.25-0.46l2.05-3.79l7.6-14.03l-1.03,1.9l-4.31,7.96l4.31-7.96h-0.17
	l2.09-3.54l-0.89,1.64l0.92-1.69l0.03-0.06l0,0l0,0l20.71-35.11l139.63,0.33l21.39,37.86l1.28,2.27h0.01l0.26,0.47h-0.04l-0.17-0.26
	l8.38,13.17l1.73,2.72l0.3,0.47l17.36,0.16l-0.26-0.47L345.69,318.61z M91.92,198.4l85.52-145.01l82.17,145.41l-31.8-0.08
	l-50.88-90.03l-52.95,89.79L91.92,198.4z M209.41,198.67l-66.88-0.16l34.11-57.83L209.41,198.67z M64.1,300.01l-31.93-0.29
	l22.65-38.41l32.06,0.07L64.1,300.01z M114.85,245.45l18.26-30.95l85.35,0.2l17.54,31.04L114.85,245.45z M263.44,261.8l31.81,0.07
	l22.87,40.48l-31.92-0.29L263.44,261.8z"/>
<rect x="97" y="225.49" class="st1" width="156" height="21.51"/>
<text transform="matrix(1 0 0 1 122.8149 237.8008)" class="st0 st2 st3">Ahmed Essam</text>
<rect x="171.06" y="6.74" class="st1" width="8.68" height="9.19"/>
</svg>
